<svg width="526" height="526" viewBox="0 0 526 526" fill="none" xmlns="http://www.w3.org/2000/svg">
<path d="M28.8723 113.544V78.6887C28.8723 66.3631 33.7393 54.5423 42.4027 45.8267C51.0661 37.1112 62.8161 32.2148 75.0679 32.2148H109.715" stroke="#009934" stroke-width="3.66667" stroke-linecap="round" stroke-linejoin="round"/>
<path d="M497.128 110.375V75.52C497.128 63.1944 492.261 51.3736 483.597 42.658C474.934 33.9425 463.184 29.0461 450.932 29.0461H416.285" stroke="#009934" stroke-width="3.66667" stroke-linecap="round" stroke-linejoin="round"/>
<path d="M497.128 415.625V450.48C497.128 462.806 492.261 474.626 483.597 483.342C474.934 492.058 463.184 496.954 450.932 496.954H416.285" stroke="#009934" stroke-width="3.66667" stroke-linecap="round" stroke-linejoin="round"/>
<path d="M28.8723 415.625V450.48C28.8723 462.806 33.7393 474.626 42.4027 483.342C51.0661 492.058 62.8161 496.954 75.0679 496.954H109.715" stroke="#009934" stroke-width="3.66667" stroke-linecap="round" stroke-linejoin="round"/>
</svg>
