<svg width="125" height="125" viewBox="0 0 125 125" fill="none" xmlns="http://www.w3.org/2000/svg">
<path d="M6.86133 26.9828V18.6997C6.86133 15.7706 8.01794 12.9615 10.0767 10.8903C12.1355 8.8191 14.9278 7.65552 17.8394 7.65552H26.0729" stroke="white" stroke-width="3.66667" stroke-linecap="round" stroke-linejoin="round"/>
<path d="M118.139 26.2299V17.9468C118.139 15.0177 116.982 12.2085 114.923 10.1374C112.864 8.06617 110.072 6.90259 107.161 6.90259H98.9271" stroke="white" stroke-width="3.66667" stroke-linecap="round" stroke-linejoin="round"/>
<path d="M118.139 98.7701V107.053C118.139 109.982 116.982 112.791 114.923 114.863C112.864 116.934 110.072 118.097 107.161 118.097H98.9271" stroke="white" stroke-width="3.66667" stroke-linecap="round" stroke-linejoin="round"/>
<path d="M6.86133 98.7701V107.053C6.86133 109.982 8.01794 112.791 10.0767 114.863C12.1355 116.934 14.9278 118.097 17.8394 118.097H26.0729" stroke="white" stroke-width="3.66667" stroke-linecap="round" stroke-linejoin="round"/>
</svg>
