<svg width="85" height="85" viewBox="0 0 85 85" fill="none" xmlns="http://www.w3.org/2000/svg">
<path d="M31.875 42.5001L38.9583 49.5834L53.125 35.4167" stroke="white" stroke-width="3.66667" stroke-linecap="round" stroke-linejoin="round"/>
<path d="M42.4999 10.625C50.7726 17.9441 61.5699 21.7549 72.604 21.25C74.2105 26.7148 74.702 32.4469 74.0495 38.1054C73.3969 43.764 71.6135 49.2337 68.8052 54.1894C65.997 59.1451 62.2212 63.4857 57.7023 66.9534C53.1834 70.421 48.0135 72.9449 42.4999 74.375C36.9862 72.9449 31.8164 70.421 27.2974 66.9534C22.7785 63.4857 19.0027 59.1451 16.1945 54.1894C13.3862 49.2337 11.6028 43.764 10.9503 38.1054C10.2977 32.4469 10.7892 26.7148 12.3957 21.25C23.4299 21.7549 34.2271 17.9441 42.4999 10.625" stroke="white" stroke-width="3.66667" stroke-linecap="round" stroke-linejoin="round"/>
</svg>
