<svg width="85" height="85" viewBox="0 0 85 85" fill="none" xmlns="http://www.w3.org/2000/svg">
<path d="M60.2083 60.2083H67.2917C69.1703 60.2083 70.972 59.4621 72.3003 58.1337C73.6287 56.8053 74.375 55.0036 74.375 53.125V38.9583C74.375 37.0797 73.6287 35.278 72.3003 33.9497C70.972 32.6213 69.1703 31.875 67.2917 31.875H17.7083C15.8297 31.875 14.028 32.6213 12.6997 33.9497C11.3713 35.278 10.625 37.0797 10.625 38.9583V53.125C10.625 55.0036 11.3713 56.8053 12.6997 58.1337C14.028 59.4621 15.8297 60.2083 17.7083 60.2083H24.7917" stroke="white" stroke-width="2.75" stroke-linecap="round" stroke-linejoin="round"/>
<path d="M60.2084 31.875V17.7083C60.2084 15.8297 59.4621 14.028 58.1338 12.6997C56.8054 11.3713 55.0037 10.625 53.1251 10.625H31.8751C29.9965 10.625 28.1948 11.3713 26.8664 12.6997C25.538 14.028 24.7917 15.8297 24.7917 17.7083V31.875" stroke="white" stroke-width="2.75" stroke-linecap="round" stroke-linejoin="round"/>
<path d="M53.1251 46.0417H31.8751C27.9631 46.0417 24.7917 49.2131 24.7917 53.1251V67.2917C24.7917 71.2038 27.9631 74.3751 31.8751 74.3751H53.1251C57.0371 74.3751 60.2084 71.2038 60.2084 67.2917V53.1251C60.2084 49.2131 57.0371 46.0417 53.1251 46.0417Z" stroke="white" stroke-width="2.75" stroke-linecap="round" stroke-linejoin="round"/>
</svg>
